HIERARCHY
ROOT Hips
{
  OFFSET -59.3143 95.8942 -113.006
  CHANNELS 6 Xposition Yposition Zposition Zrotation Xrotation Yrotation
  JOINT RightUpLeg
  {
    OFFSET -8.9458 -8.66707 0.101652
    CHANNELS 3 Zrotation Xrotation Yrotation
    JOINT RightLeg
    {
      OFFSET 0 -44.4227 1.3727
      CHANNELS 3 Zrotation Xrotation Yrotation
      JOINT RightFoot
      {
        OFFSET 0.253549 -42.0924 -1.46059
        CHANNELS 3 Zrotation Xrotation Yrotation
        JOINT RightToes
        {
          OFFSET 0.04 -4.41509 8.4991
          CHANNELS 3 Zrotation Xrotation Yrotation
          End Site
          {
            OFFSET -0.08 -0.137448 9.77979
          }
        }
      }
    }
  }
  JOINT Spine
  {
    OFFSET 0 11.8905 0
    CHANNELS 3 Zrotation Xrotation Yrotation
    JOINT Spine1
    {
      OFFSET 0 25.6574 0.127663
      CHANNELS 3 Zrotation Xrotation Yrotation
      JOINT HEad
      {
        OFFSET 0 8.73416 0.011341
        CHANNELS 3 Zrotation Xrotation Yrotation
        End Site
        {
          OFFSET -0.29 12.7742 2.51395
        }
      }
      JOINT LeftShoulder1
      {
        OFFSET 8.99 -0.362252 -0.22
        CHANNELS 3 Zrotation Xrotation Yrotation
        JOINT LeftArm
        {
          OFFSET 10.2827 -0.00338 0.322123
          CHANNELS 3 Zrotation Xrotation Yrotation
          JOINT LeftForeArm
          {
            OFFSET 32.7669 0.099144 -1.42434
            CHANNELS 3 Zrotation Xrotation Yrotation
            JOINT LeftHand
            {
              OFFSET 27.5643 0.085362 1.02216
              CHANNELS 3 Zrotation Xrotation Yrotation
              End Site
              {
                OFFSET 16.7443 -0.6 1.50291
              }
            }
          }
        }
      }
      JOINT RightShoulder
      {
        OFFSET -8.99 -0.362252 -0.22
        CHANNELS 3 Zrotation Xrotation Yrotation
        JOINT RightArm
        {
          OFFSET -10.2827 -0.00338 0.322123
          CHANNELS 3 Zrotation Xrotation Yrotation
          JOINT RightForeArm
          {
            OFFSET -32.8971 0.099144 -1.42434
            CHANNELS 3 Zrotation Xrotation Yrotation
            JOINT RightHand
            {
              OFFSET -27.4921 0.085362 1.02216
              CHANNELS 3 Zrotation Xrotation Yrotation
              End Site
              {
                OFFSET -16.6312 -0.6 1.50291
              }
            }
          }
        }
      }
    }
  }
  JOINT LeftUpLeg
  {
    OFFSET 8.9458 -8.66707 0.101652
    CHANNELS 3 Zrotation Xrotation Yrotation
    JOINT LeftLeg
    {
      OFFSET 0 -44.4227 1.3727
      CHANNELS 3 Zrotation Xrotation Yrotation
      JOINT LeftFoot
      {
        OFFSET -0.253549 -42.0924 -1.46059
        CHANNELS 3 Zrotation Xrotation Yrotation
        JOINT LeftToes
        {
          OFFSET -0.04 -4.41509 8.4991
          CHANNELS 3 Zrotation Xrotation Yrotation
          End Site
          {
            OFFSET 0.08 -0.047448 9.77979
          }
        }
      }
    }
  }
}
MOTION
Frames:	22
Frame Time:	0.0166667
-93.4575 86.0374 -71.841 -8.42937 -14.8323 -12.0222 -14.0473 -15.0317 6.16344 8.26133 48.4873 -4.89692 16.9241 16.5654 -3.59743 -35.2769 -31.7253 -4.92884 1.93787 13.4791 -4.89069 5.61832 26.9214 -10.8956 8.87901 -23.5878 55.5624 1.59028e-015 -3.18055e-015 3.18055e-015 3.30265 -27.3597 -17.8156 7.81991 -42.5177 -0.0655391 2.38487 9.58882 -16.9718 11.2303 2.87158 17.2187 71.4308 -46.6161 85.5062 24.5447 64.2609 114.9 -13.0233 11.793 -22.0719 31.7119 -12.1409 -2.73259 -1.46894 29.5856 5.88013 -14.9222 17.12 3.10896 -8.52265 -25.7147 -9.03299 
-91.7606 85.8374 -72.7564 -7.82391 -15.2647 -12.3425 -14.6133 -14.0286 7.07434 13.0963 53.6455 -15.0361 13.5695 17.2386 -2.95585 -36.9951 -32.5263 -7.51778 1.75724 13.536 -3.96725 4.33611 27.0916 -8.75935 7.22557 -23.094 51.7643 -1.59028e-015 3.18055e-015 6.36111e-015 0.167048 -29.6123 -18.2802 4.93569 -36.8665 -11.5676 3.08243 9.41379 -19.1434 10.9788 2.74095 16.6091 72.4054 -49.8026 84.894 25.7849 64.8802 115.836 -12.9672 11.7898 -22.123 31.1088 -12.5953 -1.74057 -2.89611 30.4357 6.01997 -15.3003 16.4205 3.10225 -8.52988 -25.2674 -10.0507 
-90.2386 85.8213 -73.6129 -7.10095 -15.7417 -12.718 -14.8374 -12.2023 7.13633 16.6724 58.141 -22.7127 10.6021 17.1424 -2.29959 -36.7815 -32.1499 -8.70206 1.71213 13.5341 -2.85347 3.03661 27.1706 -6.1367 4.84694 -21.7874 48.1636 -1.76556e-031 -3.18055e-015 -3.18055e-015 -3.02192 -32.7644 -18.3389 -0.933297 -27.6406 -26.5664 4.08939 9.21866 -18.7699 11.3859 2.79869 16.5447 70.311 -52.7435 81.4331 26.8428 64.9423 116.823 -13.0186 11.7419 -21.6051 30.275 -12.7647 -1.83645 -4.64279 30.7314 7.17784 -15.3261 16.3259 3.09564 -8.41941 -24.7783 -10.5179 
-88.8874 86.0077 -74.4902 -6.36462 -16.2747 -13.0026 -14.7048 -9.58806 6.60636 18.9155 61.7042 -27.1531 8.63075 16.6827 -1.84076 -35.8524 -31.4181 -9.09728 1.6909 13.5091 -1.69754 1.91764 27.1992 -3.44915 2.21342 -19.8792 45.0369 2.38542e-015 -3.18055e-015 -3.18055e-015 -7.01314 -37.8393 -18.6655 -5.50178 -15.7662 -39.9345 5.79509 8.9532 -17.0303 12.1883 2.99931 16.9863 65.3096 -54.5229 74.9074 26.834 64.3947 118.676 -12.8084 11.6793 -21.3128 29.0015 -12.6522 -2.31788 -5.66568 30.3466 8.30407 -15.0718 16.795 3.1008 -8.20626 -24.2337 -10.5148 
-87.6914 86.4346 -75.4709 -5.66374 -16.7468 -13.1688 -14.2768 -6.49489 6.04062 20.6474 63.972 -29.1103 7.73079 16.3346 -1.6285 -35.1191 -30.8694 -9.26171 1.55276 13.4697 -0.532715 1.05906 27.1593 -0.88144 -0.386632 -17.584 42.2797 7.95139e-016 -6.36111e-015 -0 -13.0612 -45.4186 -20.1428 -10.0369 -1.92585 -50.9498 7.66678 8.6861 -15.6995 13.3202 3.3284 17.8168 58.7231 -54.4394 66.3641 25.6443 63.4064 121.388 -12.1206 11.6232 -21.7691 27.1511 -12.3358 -2.78325 -5.26091 29.2188 8.77286 -14.8065 17.7867 3.16603 -7.78906 -23.4177 -9.86815 
-86.6049 87.1146 -76.6181 -4.99368 -16.9828 -13.2631 -13.6112 -3.40486 5.72496 22.1892 64.8319 -29.3425 7.76566 16.6439 -1.65469 -35.2621 -30.945 -9.41761 1.30543 13.409 0.639996 0.417715 27.0326 1.55805 -2.73639 -15.1419 39.7208 1.59028e-015 3.18055e-015 -3.18055e-015 -22.4176 -54.2949 -23.6063 -15.5297 12.7519 -58.6841 9.1003 8.42345 -15.8523 14.852 3.79112 18.8759 52.7798 -52.5929 58.0866 24.0346 62.3829 123.992 -11.0627 11.5659 -22.9053 24.8493 -11.9565 -3.37641 -3.67667 27.2309 8.82279 -14.8132 19.3423 3.36007 -7.06683 -22.0514 -8.41032 
-85.5751 87.9898 -77.9599 -4.2971 -16.8601 -13.3475 -12.7883 -0.788501 5.60498 23.0076 64.5621 -27.9696 8.67626 17.9134 -1.93551 -36.6741 -31.9208 -9.53417 1.05185 13.3476 1.80579 -0.155507 26.89 3.93773 -4.65395 -12.9251 37.2683 -3.97569e-016 3.18055e-015 -0 -35.575 -62.1232 -29.4221 -22.072 26.3341 -62.9698 9.78784 8.19362 -17.1865 16.784 4.36964 19.9568 49.0708 -49.8814 51.9998 22.9548 61.7908 125.341 -9.99829 11.4997 -24.1999 22.4542 -11.6715 -4.37841 -1.76785 24.362 8.94438 -15.349 21.4205 3.7556 -5.97585 -19.7593 -6.1257 
-84.5641 88.9444 -79.4907 -3.51553 -16.3691 -13.4685 -11.9274 1.09041 5.53712 22.5942 63.5824 -25.0335 10.4869 19.9109 -2.51032 -39.2006 -33.7061 -9.44848 0.887413 13.3454 2.94393 -0.845965 26.8936 6.33464 -6.07025 -11.4025 34.8273 -3.97569e-016 3.18055e-015 -7.95139e-016 -49.8031 -66.0341 -35.3734 -27.9495 36.1594 -65.8953 9.85906 8.07331 -18.4879 18.8896 4.97513 20.8021 47.9097 -47.2538 48.8078 22.9277 61.8309 124.835 -9.30365 11.4472 -25.0895 20.3731 -11.6038 -5.65804 -0.224951 20.8367 9.00914 -16.6237 23.7445 4.41073 -4.54854 -16.1732 -3.17986 
-83.5414 89.8299 -81.1787 -2.63747 -15.599 -13.6111 -11.1553 2.26058 5.46822 21.0032 62.1264 -20.9894 13.1111 22.1408 -3.3872 -42.3519 -35.9675 -9.13592 0.849323 13.4527 4.01401 -1.74596 27.1694 8.7064 -7.09201 -10.9212 32.3444 1.19271e-015 3.18055e-015 -0 -56.1707 -61.3028 -33.8001 -27.9544 37.3863 -73.6786 9.4864 8.16018 -18.3356 20.7552 5.46575 21.2267 48.9638 -45.0707 48.3793 23.9193 62.3253 122.565 -9.13562 11.4323 -25.2972 18.844 -11.8487 -6.57516 0.802888 17.1009 8.05746 -18.7087 25.9603 5.34768 -3.05072 -11.509 -0.127533 
-82.4822 90.496 -82.9845 -1.69785 -14.6922 -13.6587 -10.5483 2.9925 5.40827 18.6744 60.1575 -16.6556 16.1676 24.2212 -4.47434 -45.8111 -38.3807 -9.02718 0.911976 13.6509 4.9126 -2.76026 27.6768 10.7743 -7.91344 -11.463 29.9872 3.97569e-016 3.18055e-015 -3.97569e-016 -61.9595 -56.3123 -31.715 -25.9954 38.5389 -81.7853 9.70563 8.18149 -17.53 22.081 5.77295 21.3189 51.5394 -43.1692 50.0169 25.4552 62.9096 119.115 -9.39611 11.4453 -24.8478 17.81 -12.5258 -6.4533 1.52342 13.8617 4.86158 -21.4537 27.7995 6.51555 -1.89132 -7.09062 2.02622 
-81.3905 90.8416 -84.8921 -0.744143 -13.8072 -13.4403 -10.0943 3.64966 5.35947 16.1285 57.5259 -12.9481 18.8864 25.8904 -5.51367 -49.6967 -40.6856 -10.1031 0.975442 13.8471 5.51158 -3.62314 28.1894 12.1455 -8.60304 -12.5568 28.0906 -1.19271e-015 0 3.97569e-016 -66.6096 -51.4036 -28.9983 -22.8716 39.2304 -89.3875 10.313 8.15078 -16.5287 23.0608 6.01275 21.4268 54.3015 -41.3847 52.3877 26.801 63.2575 115.436 -9.8266 11.4508 -23.9604 17.0068 -13.8652 -5.21426 2.1563 12.2795 -1.06179 -24.4615 28.7023 7.67196 -1.28191 -4.56107 2.36924 
-80.3145 90.8592 -86.9325 0.178541 -13.0617 -12.8898 -9.67848 4.47433 5.38069 13.7657 54.1859 -10.6382 20.218 26.8848 -6.08586 -54.4266 -42.5915 -13.5552 0.871292 13.9537 5.79758 -4.05731 28.4462 12.6834 -9.03421 -13.5225 26.8097 -0 0 7.95139e-016 -69.7252 -46.7499 -25.7043 -19.763 39.3291 -95.3808 11.0072 8.0907 -15.797 24.272 6.36992 21.7691 55.617 -39.7952 53.927 27.2111 63.1387 112.778 -10.1526 11.4281 -23.0174 16.2679 -16.0878 -3.54468 2.79025 13.5862 -8.44872 -26.8838 27.8531 8.2732 -1.17503 -4.35495 0.828458 
-79.2999 90.5743 -89.1136 1.01331 -12.5553 -12.1494 -9.17582 5.52516 5.63415 11.7668 50.4369 -10.0679 19.2543 26.8219 -5.77788 -59.8669 -43.6033 -19.7049 0.48271 13.9879 5.91285 -3.97864 28.3946 12.677 -9.07971 -13.9694 25.9315 0 3.18055e-015 -0 -71.3565 -42.4216 -22.472 -17.576 39.0556 -98.9902 11.6068 8.00532 -15.5829 25.9982 6.84593 22.0855 54.7541 -38.3829 53.8556 26.3172 62.4086 112.192 -10.2378 11.3955 -22.4623 15.6559 -19.0903 -2.44672 3.36642 18.3054 -14.5206 -27.6944 25.3161 7.91954 -1.46818 -5.75057 -1.83466 
-78.3559 90.0206 -91.3764 1.66415 -12.375 -11.4739 -8.532 6.71714 6.20472 10.1369 46.9058 -10.8864 15.757 25.2096 -4.49026 -63.9267 -43.1896 -26.4688 -0.157588 14.0556 6.01214 -3.48127 28.2477 12.5024 -8.79664 -14.0242 25.1891 7.95139e-016 0 -0 -71.728 -38.6542 -20.116 -16.6182 38.721 -100.214 12.0356 7.90683 -15.8133 27.8598 7.23123 21.9587 52.4505 -36.8641 52.6247 24.355 61.0889 113.844 -10.0902 11.3841 -22.6058 15.3278 -22.2478 -2.60728 3.58972 25.592 -16.6081 -26.873 22.726 7.06487 -2.1763 -8.26351 -5.19254 
-77.4258 89.2477 -93.5905 1.94613 -12.5886 -11.0583 -7.75995 7.96584 6.98861 8.88408 44.1736 -12.217 10.6027 21.9021 -2.71056 -64.0717 -41.6539 -30.5759 -0.724644 14.2101 6.0874 -2.64587 28.2583 12.2455 -8.39307 -14.0379 24.6508 8.82781e-032 3.18055e-015 -1.59028e-015 -70.9568 -35.9751 -18.911 -16.7552 38.5246 -99.7411 12.1829 7.8382 -16.2274 29.3117 7.36554 21.3427 49.967 -35.0338 51.2065 21.8892 59.4111 117.031 -9.74326 11.4003 -23.504 15.4252 -24.7925 -4.00304 3.05096 33.9349 -13.676 -25.2924 22.0299 6.47501 -3.55968 -12.1019 -9.63694 
-76.399 88.311 -95.6198 1.6168 -13.1676 -10.9703 -6.91777 9.15444 7.77545 8.12121 42.4756 -13.3841 5.45681 17.8468 -1.21527 -61.1489 -39.9208 -31.4656 -0.70634 14.4048 5.98978 -1.4327 28.517 11.7437 -8.06609 -14.2477 24.6491 1.19271e-015 0 -2.38542e-015 -69.175 -34.951 -18.472 -17.5462 38.5444 -98.5859 11.9927 7.83888 -16.562 30.2041 7.28469 20.4886 47.9519 -32.9549 50.2846 19.4475 57.69 120.749 -9.22739 11.423 -24.9508 16.0667 -26.1783 -5.94565 1.81638 41.9256 -7.02627 -23.6319 23.7386 6.37731 -5.84987 -17.0504 -14.9959 
-75.1959 87.3087 -97.4023 0.61082 -13.9298 -11.159 -6.17179 10.0041 8.348 7.99228 41.7396 -14.3429 1.64464 14.7452 -0.345722 -58.4845 -38.7503 -31.1984 0.0370839 14.6018 5.60917 0.182384 28.9746 10.8177 -7.87819 -14.7299 25.4546 -1.98785e-015 0 -7.95139e-016 -66.6751 -35.832 -18.1328 -18.3053 38.7839 -97.7085 11.6853 7.89143 -16.6037 30.7122 7.11197 19.6391 46.3658 -30.8577 50.0965 17.3902 56.1638 124.142 -8.60624 11.4268 -26.5993 17.1686 -26.1564 -7.65028 0.729087 48.46 -0.0427405 -22.1892 26.1624 6.43428 -8.52509 -21.8321 -19.3302 
-73.8237 86.4223 -98.9409 -0.882855 -14.5578 -11.4903 -5.70793 10.2095 8.49808 8.49728 41.6234 -15.2094 -0.388977 13.7156 0.0399415 -58.2616 -38.5458 -31.49 1.22028 14.7772 4.94147 2.13407 29.477 9.40152 -7.75386 -15.4592 27.0987 -1.59028e-015 -6.36111e-015 -3.97569e-016 -63.773 -38.4133 -17.2909 -18.462 39.1944 -97.6434 11.651 7.9351 -16.2222 31.0087 6.9373 18.9329 44.9785 -28.9663 50.5548 15.9008 54.9375 126.71 -7.94017 11.3998 -28.1867 18.4658 -24.8306 -8.74925 0.653605 52.6463 4.12046 -21.1818 27.0219 6.2859 -10.8158 -25.8637 -21.0782 
-72.352 85.8139 -100.251 -2.48638 -14.7653 -11.8277 -5.6684 9.62498 8.1405 9.4333 41.7837 -15.7583 -0.748406 14.4958 0.11685 -60.2969 -39.1579 -32.4797 2.47059 14.8858 4.08038 4.23288 29.8238 7.57345 -7.56582 -16.3149 29.3989 2.01735e-015 -3.18055e-015 1.57475e-015 -60.6024 -42.1571 -15.5569 -17.9925 39.6826 -98.2789 12.0758 7.93379 -15.4773 31.1483 6.7905 18.4115 43.6417 -27.3173 51.3341 14.9822 53.9598 128.355 -7.22306 11.3367 -29.6639 19.6651 -22.6342 -9.21337 1.61107 53.9252 5.03806 -20.4423 25.3847 5.7667 -12.8073 -29.727 -21.1077 
-70.8922 85.6144 -101.385 -3.69833 -14.4778 -12.0498 -6.15962 8.37105 7.44687 10.4771 41.919 -15.5669 0.204146 15.9601 -0.0595591 -62.8936 -40.092 -33.2191 3.36231 14.8868 3.18464 6.16562 29.8564 5.53665 -7.25319 -17.0831 32.0404 -1.19271e-015 0 -1.59028e-015 -57.1235 -46.4202 -12.8055 -17.3922 40.19 -98.9574 12.7808 7.89704 -14.6751 31.2022 6.66758 18.0138 42.1723 -25.6703 51.9141 14.3857 52.9462 129.382 -6.36472 11.222 -31.1396 20.4177 -20.0824 -9.00822 2.99682 52.2881 4.2143 -19.4475 21.6742 4.85495 -14.4408 -33.2581 -20.3294 
-69.4977 85.8715 -102.439 -4.19493 -13.8114 -12.0665 -7.11777 6.69094 6.70395 11.2981 41.8634 -14.4153 1.98634 17.022 -0.436693 -64.1876 -40.9087 -32.6481 3.81228 14.7319 2.3547 7.65751 29.4987 3.55582 -6.88712 -17.5843 34.6215 -1.19271e-015 0 -0 -53.3677 -50.6028 -9.2768 -17.2344 40.7415 -98.8953 13.4393 7.84175 -14.1891 31.3432 6.5531 17.593 40.2934 -23.5714 51.7379 13.6208 51.3917 130.387 -5.24785 11.0263 -32.7507 20.4982 -17.7377 -8.1241 4.16529 48.5305 3.02242 -18.1111 16.993 3.78871 -14.596 -34.8237 -18.0705 
-68.1564 86.573 -103.553 -3.92011 -12.931 -11.8122 -8.32297 4.79377 6.074 11.5469 41.534 -12.4534 4.10571 17.2031 -0.896652 -63.077 -41.2726 -30.3146 4.0017 14.4064 1.6135 8.56539 28.79 1.85437 -6.59806 -17.8467 36.7502 -3.18055e-015 -3.18055e-015 7.95139e-016 -49.6983 -54.2688 -5.6535 -17.8196 41.3473 -97.5923 13.8505 7.77421 -14.1918 31.7164 6.43729 17.0451 37.9357 -20.6288 50.5475 12.3039 48.9051 131.86 -3.86882 10.7336 -34.5168 19.9304 -16.1061 -6.76471 4.62408 43.7564 2.11602 -16.9226 12.9335 2.95325 -12.8443 -33.2642 -14.4428 
